<?xml version="1.0" standalone="no"?>
<!DOCTYPE svg PUBLIC "-//W3C//DTD SVG 20010904//EN"
 "http://www.w3.org/TR/2001/REC-SVG-20010904/DTD/svg10.dtd">
<svg version="1.0" xmlns="http://www.w3.org/2000/svg"
 width="500.000000pt" height="500.000000pt" viewBox="0 0 500.000000 500.000000"
 preserveAspectRatio="xMidYMid meet">

<g transform="translate(0.000000,500.000000) scale(0.100000,-0.100000)"
fill="#000000" stroke="none">
<path d="M3070 3934 c-19 -2 -75 -11 -124 -20 -360 -63 -650 -275 -726 -531
-7 -24 -15 -43 -18 -43 -2 0 -50 10 -105 22 -135 28 -379 31 -511 5 -255 -51
-467 -160 -600 -308 -177 -196 -201 -458 -63 -672 85 -133 248 -256 425 -323
100 -38 95 -25 55 -164 -13 -47 -46 -129 -73 -182 -26 -53 -46 -99 -43 -102
18 -18 238 140 364 262 75 71 111 100 123 96 28 -11 283 16 378 40 329 84 581
278 646 498 9 32 21 58 25 58 5 0 53 -9 107 -20 54 -11 154 -22 223 -24 l124
-5 69 -71 c37 -39 102 -98 144 -130 93 -74 233 -161 242 -152 3 4 -16 52 -42
107 -51 103 -106 275 -97 299 3 7 18 17 34 20 52 13 214 95 278 140 322 230
376 608 127 877 -142 153 -341 255 -593 304 -83 16 -301 27 -369 19z m249 -24
c279 -30 504 -126 666 -285 188 -185 232 -406 124 -624 -81 -164 -245 -296
-474 -381 -67 -25 -70 -27 -66 -55 6 -55 51 -197 86 -273 20 -41 34 -77 32
-79 -6 -6 -119 71 -198 135 -42 34 -104 91 -139 128 l-63 68 -116 2 c-107 2
-272 24 -322 42 -20 8 -22 17 -24 103 -4 181 -90 337 -256 464 -69 54 -191
121 -274 151 -56 21 -60 24 -59 52 2 45 58 149 116 217 142 167 384 290 636
324 160 22 208 24 331 11z m-1246 -566 c554 -105 864 -511 678 -889 -131 -265
-499 -453 -896 -457 l-114 -1 -108 -106 c-87 -86 -274 -231 -297 -231 -2 0 11
33 29 73 33 71 76 206 90 279 6 34 6 34 -49 51 -161 51 -344 174 -430 288 -76
101 -107 178 -121 299 -14 118 43 271 143 388 144 170 430 298 722 326 76 7
269 -4 353 -20z"/>
<path d="M1329 2681 c-23 -23 -29 -38 -29 -71 0 -23 5 -50 10 -61 13 -23 61
-49 92 -49 40 0 86 36 97 76 29 104 -94 180 -170 105z"/>
<path d="M1758 2681 c-85 -76 6 -215 112 -171 64 27 81 120 31 171 -41 40 -98
41 -143 0z"/>
<path d="M2188 2687 c-14 -13 -29 -34 -33 -46 -20 -65 34 -141 102 -141 47 0
103 54 103 99 0 39 -24 87 -49 101 -35 18 -96 12 -123 -13z"/>
</g>
</svg>
